<svg xmlns="http://www.w3.org/2000/svg" width="15.562" height="20" viewBox="0 0 15.562 20">
  <defs>
    <style>
      .cls-1 {
        fill: #ccc;
        fill-rule: evenodd;
      }
    </style>
  </defs>
  <path id="ico-lock" class="cls-1" d="M150,1438a4.457,4.457,0,0,0-4.445,4.44v3.34h-2.222a1.047,1.047,0,0,0-1.111,1.11v10a1.047,1.047,0,0,0,1.111,1.11h13.334a1.047,1.047,0,0,0,1.111-1.11v-10a1.047,1.047,0,0,0-1.111-1.11h-2.223v-3.34A4.456,4.456,0,0,0,150,1438Zm2.222,7.78h-4.444v-3.34a2.222,2.222,0,0,1,4.444,0v3.34Zm-2.333,3.33h0.222a1,1,0,0,1,1,1v3.56a1,1,0,0,1-1,1h-0.222a1,1,0,0,1-1-1v-3.56A1,1,0,0,1,149.889,1449.11Z" transform="translate(-142.219 -1438)"/>
</svg>
